<svg width="71" height="71" viewBox="0 0 71 71" fill="none" xmlns="http://www.w3.org/2000/svg">
<rect width="71" height="71" rx="14" fill="#FFE8DF"/>
<path d="M47.1253 45.8334H28.0086C26.5618 45.8334 25.8378 45.8333 25.2852 45.5518C24.7992 45.3041 24.4042 44.909 24.1566 44.4229C23.875 43.8703 23.875 43.1468 23.875 41.7V26.4584M47.125 29.0417L39.5743 35.6485C38.67 36.4398 38.2178 36.8355 37.7226 36.9997C37.1385 37.1934 36.5043 37.1723 35.9344 36.9401C35.4513 36.7433 35.0267 36.3185 34.177 35.4689C33.3458 34.6377 32.9302 34.2221 32.4563 34.0255C31.8972 33.7935 31.2746 33.7652 30.6968 33.9455C30.207 34.0984 29.7553 34.4747 28.8523 35.2273L23.875 39.375" stroke="#CE5D30" stroke-width="2" stroke-linecap="round" stroke-linejoin="round"/>
</svg>
