<svg width="71" height="71" viewBox="0 0 71 71" fill="none" xmlns="http://www.w3.org/2000/svg">
<rect width="71" height="71" rx="14" fill="#E3FFDF"/>
<path fill-rule="evenodd" clip-rule="evenodd" d="M37.5844 22.9837C37.9417 23.1358 38.1737 23.4867 38.1737 23.875V32.9143H43.2499C43.5944 32.9143 43.913 33.0973 44.0866 33.3948C44.2603 33.6924 44.2628 34.0597 44.0933 34.3597L43.4578 35.4845C41.0473 39.7504 37.9733 43.6055 34.3511 46.9052L33.3235 47.8412C33.0399 48.0995 32.6306 48.1662 32.2797 48.0112C31.9288 47.8561 31.7024 47.5086 31.7024 47.125V38.1623H26.4583C25.9232 38.1623 25.4895 37.7286 25.4895 37.1936C25.4895 37.0203 25.535 36.8576 25.6147 36.7169C27.8865 32.5171 30.795 28.6945 34.2369 25.3849L36.5335 23.1767C36.8134 22.9075 37.2271 22.8316 37.5844 22.9837ZM28.1175 36.2248H32.6712C33.2062 36.2248 33.6399 36.6586 33.6399 37.1936V44.9221C36.7639 41.9699 39.4417 38.5776 41.5881 34.8519H37.2049C36.6699 34.8519 36.2362 34.4181 36.2362 33.8831V26.1504L35.5798 26.7815C32.6726 29.577 30.1625 32.7545 28.1175 36.2248Z" fill="#6AAF60"/>
</svg>
