<svg width="71" height="71" viewBox="0 0 71 71" fill="none" xmlns="http://www.w3.org/2000/svg">
<rect width="71" height="71" rx="14" fill="#FFF8DF"/>
<path d="M26.1329 29.8751L25.7067 34.5636L25.7054 34.5777C25.6418 35.277 25.6098 35.6288 25.6679 35.963C25.7197 36.2611 25.8231 36.5478 25.9741 36.81C26.1435 37.1041 26.3938 37.3544 26.8912 37.8518L26.8999 37.8605L33.5685 44.5291L33.5745 44.5351C34.5935 45.5541 35.1034 46.064 35.6921 46.2553C36.2109 46.4239 36.7699 46.4239 37.2888 46.2553C37.8786 46.0636 38.3912 45.552 39.4142 44.529L44.529 39.4143C45.552 38.3912 46.0625 37.8798 46.2541 37.2899C46.4227 36.7711 46.4227 36.2122 46.2541 35.6934C46.0625 35.1035 45.5517 34.592 44.5287 33.569L37.8602 26.9004C37.357 26.3973 37.1053 26.1456 36.8094 25.9752C36.5473 25.8242 36.2604 25.7204 35.9623 25.6686C35.6259 25.6101 35.2715 25.6423 34.5628 25.7067L29.8743 26.1329L29.8731 26.133C28.6536 26.2439 28.0433 26.2994 27.5659 26.5648C27.145 26.7989 26.7978 27.1461 26.5637 27.5671C26.2995 28.0421 26.2444 28.6486 26.1346 29.8564L26.1329 29.8751Z" stroke="#E6C54A" stroke-width="2" stroke-linecap="round" stroke-linejoin="round"/>
</svg>
