<svg width="179" height="70" viewBox="0 0 179 70" fill="none" xmlns="http://www.w3.org/2000/svg">
<g clip-path="url(#clip0_1_112)">
<path d="M36.5909 25.6221C36.3798 24.8278 35.9638 24.1029 35.3846 23.52C34.8053 22.937 34.0831 22.5164 33.2902 22.3002C30.3713 21.5153 18.7043 21.5153 18.7043 21.5153C18.7043 21.5153 7.03723 21.5153 4.11836 22.3002C3.32545 22.5164 2.60323 22.937 2.02397 23.52C1.44471 24.1029 1.02872 24.8278 0.817648 25.6221C0.0370179 28.5537 0.0370178 34.6672 0.0370178 34.6672C0.0370178 34.6672 0.0370179 40.7808 0.817648 43.7124C1.02872 44.5066 1.44471 45.2315 2.02397 45.8145C2.60323 46.3975 3.32545 46.8181 4.11836 47.0343C7.03723 47.8192 18.7043 47.8192 18.7043 47.8192C18.7043 47.8192 30.3713 47.8192 33.2902 47.0343C34.0831 46.8181 34.8053 46.3975 35.3846 45.8145C35.9638 45.2315 36.3798 44.5066 36.5909 43.7124C37.3715 40.7808 37.3715 34.6672 37.3715 34.6672C37.3715 34.6672 37.3715 28.5537 36.5909 25.6221Z" fill="#5CA369"/>
<path d="M14.886 40.2187V29.1159L24.6439 34.6673L14.886 40.2187Z" fill="#FEFEFE"/>
</g>
<path d="M61.193 28.4538V29.7858H57.773V40.9998H56.135V29.7858H52.697V28.4538H61.193ZM62.5972 36.0318C62.5972 35.0238 62.8012 34.1418 63.2092 33.3858C63.6172 32.6178 64.1752 32.0238 64.8832 31.6038C65.6032 31.1838 66.4012 30.9738 67.2772 30.9738C68.1412 30.9738 68.8912 31.1598 69.5272 31.5318C70.1632 31.9038 70.6372 32.3718 70.9492 32.9358V31.1358H72.6052V40.9998H70.9492V39.1638C70.6252 39.7398 70.1392 40.2198 69.4912 40.6038C68.8552 40.9758 68.1112 41.1618 67.2592 41.1618C66.3832 41.1618 65.5912 40.9458 64.8832 40.5138C64.1752 40.0818 63.6172 39.4758 63.2092 38.6958C62.8012 37.9158 62.5972 37.0278 62.5972 36.0318ZM70.9492 36.0498C70.9492 35.3058 70.7992 34.6578 70.4992 34.1058C70.1992 33.5538 69.7912 33.1338 69.2752 32.8458C68.7712 32.5458 68.2132 32.3958 67.6012 32.3958C66.9892 32.3958 66.4312 32.5398 65.9272 32.8278C65.4232 33.1158 65.0212 33.5358 64.7212 34.0878C64.4212 34.6398 64.2712 35.2878 64.2712 36.0318C64.2712 36.7878 64.4212 37.4478 64.7212 38.0118C65.0212 38.5638 65.4232 38.9898 65.9272 39.2898C66.4312 39.5778 66.9892 39.7218 67.6012 39.7218C68.2132 39.7218 68.7712 39.5778 69.2752 39.2898C69.7912 38.9898 70.1992 38.5638 70.4992 38.0118C70.7992 37.4478 70.9492 36.7938 70.9492 36.0498ZM80.8813 40.9998L77.0113 36.6438V40.9998H75.3733V27.6798H77.0113V35.5098L80.8093 31.1358H83.0953L78.4513 36.0498L83.1133 40.9998H80.8813ZM93.637 35.6898C93.637 36.0018 93.619 36.3318 93.583 36.6798H85.699C85.759 37.6518 86.089 38.4138 86.689 38.9658C87.301 39.5058 88.039 39.7758 88.903 39.7758C89.611 39.7758 90.199 39.6138 90.667 39.2898C91.147 38.9538 91.483 38.5098 91.675 37.9578H93.439C93.175 38.9058 92.647 39.6798 91.855 40.2798C91.063 40.8678 90.079 41.1618 88.903 41.1618C87.967 41.1618 87.127 40.9518 86.383 40.5318C85.651 40.1118 85.075 39.5178 84.655 38.7498C84.235 37.9698 84.025 37.0698 84.025 36.0498C84.025 35.0298 84.229 34.1358 84.637 33.3678C85.045 32.5998 85.615 32.0118 86.347 31.6038C87.091 31.1838 87.943 30.9738 88.903 30.9738C89.839 30.9738 90.667 31.1778 91.387 31.5858C92.107 31.9938 92.659 32.5578 93.043 33.2778C93.439 33.9858 93.637 34.7898 93.637 35.6898ZM91.945 35.3478C91.945 34.7238 91.807 34.1898 91.531 33.7458C91.255 33.2898 90.877 32.9478 90.397 32.7198C89.929 32.4798 89.407 32.3598 88.831 32.3598C88.003 32.3598 87.295 32.6238 86.707 33.1518C86.131 33.6798 85.801 34.4118 85.717 35.3478H91.945ZM99.9859 36.0318C99.9859 35.0238 100.19 34.1418 100.598 33.3858C101.006 32.6178 101.564 32.0238 102.272 31.6038C102.992 31.1838 103.79 30.9738 104.666 30.9738C105.53 30.9738 106.28 31.1598 106.916 31.5318C107.552 31.9038 108.026 32.3718 108.338 32.9358V31.1358H109.994V40.9998H108.338V39.1638C108.014 39.7398 107.528 40.2198 106.88 40.6038C106.244 40.9758 105.5 41.1618 104.648 41.1618C103.772 41.1618 102.98 40.9458 102.272 40.5138C101.564 40.0818 101.006 39.4758 100.598 38.6958C100.19 37.9158 99.9859 37.0278 99.9859 36.0318ZM108.338 36.0498C108.338 35.3058 108.188 34.6578 107.888 34.1058C107.588 33.5538 107.18 33.1338 106.664 32.8458C106.16 32.5458 105.602 32.3958 104.99 32.3958C104.378 32.3958 103.82 32.5398 103.316 32.8278C102.812 33.1158 102.41 33.5358 102.11 34.0878C101.81 34.6398 101.66 35.2878 101.66 36.0318C101.66 36.7878 101.81 37.4478 102.11 38.0118C102.41 38.5638 102.812 38.9898 103.316 39.2898C103.82 39.5778 104.378 39.7218 104.99 39.7218C105.602 39.7218 106.16 39.5778 106.664 39.2898C107.18 38.9898 107.588 38.5638 107.888 38.0118C108.188 37.4478 108.338 36.7938 108.338 36.0498ZM119.559 32.4858V38.2998C119.559 38.7798 119.661 39.1218 119.865 39.3258C120.069 39.5178 120.423 39.6138 120.927 39.6138H122.133V40.9998H120.657C119.745 40.9998 119.061 40.7898 118.605 40.3698C118.149 39.9498 117.921 39.2598 117.921 38.2998V32.4858H116.643V31.1358H117.921V28.6518H119.559V31.1358H122.133V32.4858H119.559ZM128.419 41.1618C127.495 41.1618 126.655 40.9518 125.899 40.5318C125.155 40.1118 124.567 39.5178 124.135 38.7498C123.715 37.9698 123.505 37.0698 123.505 36.0498C123.505 35.0418 123.721 34.1538 124.153 33.3858C124.597 32.6058 125.197 32.0118 125.953 31.6038C126.709 31.1838 127.555 30.9738 128.491 30.9738C129.427 30.9738 130.273 31.1838 131.029 31.6038C131.785 32.0118 132.379 32.5998 132.811 33.3678C133.255 34.1358 133.477 35.0298 133.477 36.0498C133.477 37.0698 133.249 37.9698 132.793 38.7498C132.349 39.5178 131.743 40.1118 130.975 40.5318C130.207 40.9518 129.355 41.1618 128.419 41.1618ZM128.419 39.7218C129.007 39.7218 129.559 39.5838 130.075 39.3078C130.591 39.0318 131.005 38.6178 131.317 38.0658C131.641 37.5138 131.803 36.8418 131.803 36.0498C131.803 35.2578 131.647 34.5858 131.335 34.0338C131.023 33.4818 130.615 33.0738 130.111 32.8098C129.607 32.5338 129.061 32.3958 128.473 32.3958C127.873 32.3958 127.321 32.5338 126.817 32.8098C126.325 33.0738 125.929 33.4818 125.629 34.0338C125.329 34.5858 125.179 35.2578 125.179 36.0498C125.179 36.8538 125.323 37.5318 125.611 38.0838C125.911 38.6358 126.307 39.0498 126.799 39.3258C127.291 39.5898 127.831 39.7218 128.419 39.7218ZM144.379 31.1358V40.9998H142.741V39.5418C142.429 40.0458 141.991 40.4418 141.427 40.7298C140.875 41.0058 140.263 41.1438 139.591 41.1438C138.823 41.1438 138.133 40.9878 137.521 40.6758C136.909 40.3518 136.423 39.8718 136.063 39.2358C135.715 38.5998 135.541 37.8258 135.541 36.9138V31.1358H137.161V36.6978C137.161 37.6698 137.407 38.4198 137.899 38.9478C138.391 39.4638 139.063 39.7218 139.915 39.7218C140.791 39.7218 141.481 39.4518 141.985 38.9118C142.489 38.3718 142.741 37.5858 142.741 36.5538V31.1358H144.379ZM148.783 32.7378C149.071 32.1738 149.479 31.7358 150.007 31.4238C150.547 31.1118 151.201 30.9558 151.969 30.9558V32.6478H151.537C149.701 32.6478 148.783 33.6438 148.783 35.6358V40.9998H147.145V31.1358H148.783V32.7378Z" fill="#212528"/>
<path d="M136.555 66.4112L137.187 62.4559L137.836 62.5596L137.559 64.2897L139.42 64.5873L139.697 62.8572L140.345 62.9609L139.713 66.9162L139.064 66.8125L139.335 65.1165L137.474 64.819L137.203 66.515L136.555 66.4112Z" fill="#212528"/>
<path d="M133.628 61.3365C133.978 61.4641 134.272 61.6631 134.509 61.9334C134.74 62.206 134.89 62.52 134.957 62.8756C135.018 63.2334 134.982 63.5965 134.848 63.9647C134.714 64.333 134.509 64.6324 134.233 64.863C133.953 65.0923 133.637 65.2349 133.285 65.2908C132.929 65.349 132.575 65.3143 132.225 65.1867C131.871 65.0578 131.579 64.8571 131.347 64.5845C131.11 64.3142 130.96 64.0019 130.897 63.6477C130.834 63.2934 130.869 62.9322 131.003 62.564C131.137 62.1957 131.343 61.8945 131.621 61.6603C131.897 61.4297 132.213 61.2853 132.57 61.2271C132.922 61.1712 133.274 61.2076 133.628 61.3365ZM133.433 61.8726C133.184 61.7819 132.941 61.757 132.705 61.7978C132.468 61.8423 132.258 61.9496 132.073 62.1195C131.884 62.2917 131.738 62.5168 131.637 62.7948C131.536 63.0728 131.503 63.3368 131.538 63.587C131.57 63.8359 131.663 64.0517 131.818 64.2347C131.972 64.4176 132.173 64.5545 132.423 64.6452C132.672 64.736 132.914 64.7609 133.15 64.72C133.386 64.6791 133.597 64.5744 133.786 64.4058C133.97 64.2358 134.113 64.0119 134.214 63.7339C134.316 63.4559 134.351 63.1907 134.32 62.9382C134.285 62.6881 134.19 62.4697 134.038 62.2832C133.883 62.1002 133.682 61.9634 133.433 61.8726Z" fill="#212528"/>
<path d="M123.598 60.5263L126.757 57.7924L127.384 58.1932L126.458 61.2002L128.845 59.1282L129.469 59.521L128.263 63.5117L127.676 63.1358L128.735 59.9409L126.22 62.2039L125.598 61.8062L126.643 58.6227L124.191 60.9053L123.598 60.5263Z" fill="#212528"/>
<path d="M119.092 13.9386L122.231 16.4276L121.823 16.9423L120.45 15.8537L119.279 17.3303L120.652 18.419L120.243 18.9338L117.105 16.4449L117.513 15.9301L118.859 16.9973L120.03 15.5206L118.684 14.4534L119.092 13.9386Z" fill="#212528"/>
<path d="M124.95 13.8734C124.667 14.1162 124.35 14.2746 123.999 14.3487C123.647 14.4173 123.3 14.3936 122.958 14.2776C122.615 14.1562 122.317 13.9469 122.061 13.6495C121.806 13.3522 121.646 13.0266 121.58 12.6728C121.517 12.3166 121.547 11.9715 121.671 11.6376C121.795 11.2982 121.998 11.0072 122.281 10.7644C122.567 10.5191 122.885 10.3621 123.236 10.2935C123.588 10.2194 123.934 10.2416 124.273 10.3601C124.613 10.4786 124.911 10.6865 125.166 10.9839C125.421 11.2812 125.583 11.6082 125.651 11.9649C125.717 12.3187 125.688 12.6652 125.564 13.0046C125.441 13.3385 125.236 13.6281 124.95 13.8734ZM124.579 13.4405C124.78 13.2678 124.92 13.0687 125 12.8431C125.077 12.6147 125.087 12.3784 125.029 12.1342C124.972 11.8846 124.847 11.6476 124.654 11.4231C124.462 11.1987 124.248 11.0407 124.012 10.9492C123.779 10.8552 123.546 10.8306 123.311 10.8754C123.075 10.9202 122.857 11.0289 122.656 11.2016C122.455 11.3744 122.315 11.5735 122.235 11.799C122.155 12.0245 122.142 12.2606 122.197 12.5073C122.255 12.7515 122.38 12.9858 122.573 13.2103C122.766 13.4347 122.98 13.5954 123.215 13.6923C123.45 13.7838 123.687 13.8086 123.924 13.7667C124.159 13.7219 124.377 13.6132 124.579 13.4405Z" fill="#212528"/>
<path d="M130.57 5.52618L131.406 9.61953L130.75 9.96914L128.582 7.6894L129.219 10.7849L128.57 11.1369L125.682 8.1307L126.297 7.80276L128.564 10.2914L127.823 6.9897L128.474 6.64279L130.738 9.11345L129.949 5.85683L130.57 5.52618Z" fill="#212528"/>
<path d="M141.15 3.01346L140.572 7.15108L139.837 7.26172L138.553 4.38914L138.121 7.51986L137.392 7.63534L135.673 3.83764L136.362 3.73386L137.668 6.83612L138.072 3.47658L138.802 3.3668L140.111 6.4511L140.454 3.11809L141.15 3.01346Z" fill="#212528"/>
<path d="M144.14 3.61074L144.086 4.78525L145.468 4.84835L145.444 5.38379L144.062 5.32069L144.006 6.54701L145.561 6.618L145.536 7.15344L143.325 7.05247L143.508 3.04533L145.719 3.1463L145.695 3.68174L144.14 3.61074Z" fill="#212528"/>
<path d="M156.46 5.82592L154.005 9.20572L153.304 8.95764L153.522 5.81907L151.668 8.37877L150.971 8.13804L151.239 3.97777L151.897 4.21047L151.59 7.56251L153.527 4.78742L154.222 5.03358L153.927 8.37125L155.798 5.5913L156.46 5.82592Z" fill="#212528"/>
<path d="M158.007 11.374C157.691 11.176 157.446 10.92 157.271 10.6062C157.101 10.2911 157.021 9.95271 157.03 9.59106C157.044 9.2282 157.156 8.88075 157.364 8.54873C157.572 8.2167 157.835 7.96682 158.154 7.79909C158.475 7.63341 158.814 7.56 159.169 7.57886C159.53 7.59651 159.868 7.70433 160.184 7.90234C160.503 8.10238 160.748 8.35995 160.917 8.67503C161.092 8.9889 161.174 9.32563 161.161 9.68524C161.149 10.0449 161.039 10.3907 160.831 10.7227C160.622 11.0547 160.358 11.3062 160.038 11.4772C159.719 11.6449 159.38 11.72 159.019 11.7023C158.663 11.6835 158.326 11.574 158.007 11.374ZM158.31 10.8906C158.535 11.0314 158.767 11.1065 159.006 11.1158C159.247 11.1219 159.475 11.0611 159.692 10.9336C159.913 10.8048 160.102 10.6151 160.259 10.3645C160.417 10.1138 160.504 9.86244 160.521 9.61036C160.542 9.36032 160.496 9.12973 160.384 8.91859C160.271 8.70745 160.103 8.53146 159.878 8.39061C159.653 8.24976 159.422 8.17468 159.183 8.16536C158.943 8.15604 158.714 8.21414 158.495 8.33966C158.279 8.46722 158.092 8.65632 157.935 8.90697C157.778 9.15762 157.688 9.40959 157.665 9.66288C157.648 9.91496 157.694 10.1482 157.805 10.3626C157.917 10.5737 158.086 10.7497 158.31 10.8906Z" fill="#212528"/>
<path d="M162.629 14.9265L163.034 13.1225L162.664 12.7835L161.581 13.9638L161.097 13.5195L163.805 10.5687L164.824 11.5041C165.051 11.7119 165.206 11.927 165.288 12.1491C165.374 12.3739 165.394 12.5878 165.349 12.791C165.306 12.9968 165.209 13.1818 165.058 13.346C164.882 13.5384 164.664 13.662 164.405 13.7165C164.152 13.7709 163.883 13.7198 163.599 13.5634L163.207 15.4565L162.629 14.9265ZM163.019 12.3971L163.554 12.8882C163.735 13.0545 163.912 13.1339 164.086 13.1265C164.263 13.1216 164.421 13.0428 164.561 12.89C164.702 12.7371 164.766 12.5767 164.753 12.4086C164.743 12.2377 164.646 12.0678 164.462 11.8989L163.927 11.4078L163.019 12.3971Z" fill="#212528"/>
<path d="M165.767 18.5171L166.227 16.1924L164.814 17.2944L164.41 16.7763L167.569 14.3135L167.973 14.8316L166.532 15.955L168.93 16.0589L169.436 16.7088L166.784 16.5693L166.295 19.1944L165.767 18.5171Z" fill="#212528"/>
<path d="M173.392 24.4212L169.685 25.938L169.436 25.3299L171.058 24.6664L170.344 22.9222L168.723 23.5856L168.474 22.9775L172.181 21.4607L172.43 22.0688L170.84 22.7192L171.554 24.4635L173.144 23.8131L173.392 24.4212Z" fill="#212528"/>
<path d="M170.58 29.5597C170.506 29.1943 170.524 28.8401 170.631 28.4972C170.744 28.1574 170.934 27.8665 171.203 27.6246C171.477 27.3857 171.806 27.2278 172.19 27.1509C172.574 27.074 172.937 27.0935 173.277 27.2095C173.619 27.3293 173.905 27.5248 174.135 27.7961C174.37 28.0703 174.524 28.3902 174.598 28.7556C174.672 29.1248 174.652 29.4794 174.54 29.8192C174.432 30.1621 174.244 30.4526 173.974 30.6908C173.704 30.9289 173.377 31.0864 172.993 31.1633C172.609 31.2402 172.244 31.2211 171.9 31.1058C171.559 30.9898 171.271 30.7947 171.036 30.5204C170.806 30.2492 170.653 29.9289 170.58 29.5597ZM171.139 29.4478C171.191 29.7077 171.296 29.9277 171.453 30.1078C171.615 30.2871 171.816 30.4114 172.057 30.4807C172.303 30.553 172.57 30.5602 172.861 30.5021C173.151 30.4441 173.393 30.3348 173.588 30.1743C173.784 30.0175 173.92 29.8257 173.996 29.5989C174.072 29.3721 174.085 29.1287 174.032 28.8687C173.98 28.6088 173.876 28.3887 173.718 28.2087C173.561 28.0286 173.361 27.902 173.119 27.829C172.878 27.7597 172.612 27.754 172.322 27.8121C172.032 27.8701 171.787 27.9779 171.588 28.1354C171.392 28.296 171.255 28.49 171.175 28.7176C171.099 28.9444 171.087 29.1878 171.139 29.4478Z" fill="#212528"/>
<path d="M175.103 38.5481L171.125 37.2715L171.142 36.5282L174.192 35.7548L171.181 34.7939L171.192 34.0562L175.227 33.0109L175.212 33.7081L171.932 34.4648L175.173 35.4367L175.157 36.1742L171.894 36.9371L175.119 37.8452L175.103 38.5481Z" fill="#212528"/>
<path d="M172.112 49.0023L168.788 46.4715L169.051 45.7763L172.184 46.0649L169.667 44.1544L169.923 43.4626L174.076 43.8238L173.829 44.4758L170.484 44.0947L173.216 46.0924L172.954 46.7822L169.624 46.4126L172.361 48.3449L172.112 49.0023Z" fill="#212528"/>
<path d="M170.126 51.317L169.129 50.6948L168.397 51.8685L167.942 51.5849L168.674 50.4112L167.632 49.7616L166.809 51.0821L166.354 50.7984L167.525 48.9205L170.929 51.0431L169.758 52.921L169.303 52.6374L170.126 51.317Z" fill="#212528"/>
<path d="M162.159 60.972L160.416 57.1754L160.975 56.6859L163.604 58.4138L162.281 55.5438L162.832 55.0538L166.328 57.3257L165.803 57.7848L163.031 55.8758L164.502 58.9231L163.946 59.4088L161.181 57.5166L162.688 60.5091L162.159 60.972Z" fill="#212528"/>
<path d="M156.565 59.602C156.892 59.4237 157.235 59.3352 157.595 59.3363C157.953 59.3427 158.287 59.4384 158.598 59.6235C158.907 59.8138 159.155 60.081 159.343 60.4252C159.53 60.7694 159.619 61.1213 159.609 61.481C159.596 61.8425 159.494 62.1736 159.304 62.4743C159.112 62.7802 158.852 63.0223 158.525 63.2006C158.194 63.3807 157.85 63.4676 157.492 63.4612C157.132 63.4601 156.799 63.3661 156.492 63.1791C156.184 62.9922 155.937 62.7266 155.749 62.3825C155.562 62.0383 155.472 61.6847 155.48 61.3216C155.49 60.9619 155.591 60.6291 155.783 60.3232C155.973 60.0225 156.234 59.7821 156.565 59.602ZM156.838 60.1031C156.605 60.2299 156.426 60.3952 156.3 60.5991C156.177 60.8063 156.118 61.0353 156.123 61.2861C156.127 61.5422 156.2 61.8001 156.341 62.0599C156.483 62.3198 156.659 62.519 156.87 62.6578C157.078 62.7983 157.302 62.8713 157.541 62.8767C157.78 62.882 158.016 62.8213 158.249 62.6945C158.482 62.5677 158.661 62.4023 158.786 62.1985C158.911 61.9947 158.973 61.7664 158.971 61.5137C158.966 61.2629 158.892 61.0076 158.751 60.7477C158.609 60.4879 158.434 60.286 158.224 60.1421C158.013 60.0034 157.787 59.9296 157.546 59.9209C157.306 59.9155 157.07 59.9763 156.838 60.1031Z" fill="#212528"/>
<path d="M151.203 61.8917L152.578 63.1277L153.054 62.9718L152.556 61.449L153.18 61.2447L154.426 65.0517L153.111 65.4818C152.819 65.5774 152.556 65.6069 152.322 65.5704C152.084 65.535 151.887 65.4477 151.733 65.3083C151.574 65.1701 151.46 64.9951 151.391 64.7833C151.31 64.535 151.309 64.2847 151.388 64.0324C151.465 63.7849 151.641 63.5757 151.916 63.4047L150.458 62.1354L151.203 61.8917ZM153.217 63.4703L152.527 63.6961C152.293 63.7725 152.137 63.8883 152.059 64.0434C151.976 64.1997 151.967 64.3764 152.032 64.5736C152.096 64.7708 152.205 64.9051 152.358 64.9764C152.512 65.0514 152.707 65.05 152.945 64.9724L153.635 64.7466L153.217 63.4703Z" fill="#212528"/>
<path d="M146.536 62.8684L148.337 64.4086L148.069 62.6363L148.718 62.538L149.318 66.4984L148.668 66.5968L148.395 64.7904L147.13 66.8297L146.315 66.953L147.735 64.7095L145.687 62.9969L146.536 62.8684Z" fill="#212528"/>
<defs>
<clipPath id="clip0_1_112">
<rect width="37.3345" height="37.3345" fill="white" transform="translate(0 16)"/>
</clipPath>
</defs>
</svg>
